# File created by Blade
# Date/Time:  Tue Apr 07 21:33:03 2015
# Frame Rate: 120.000 fps
#------------------------------------------------------
:FULLY-SPECIFIED
:DEGREES
632
root 39.322724 31.773718 -19.613172 30.282566 -61.860584 -4.368996
Spine -11.530148 -6.499469 2.835632
Head 1.843973 -3.117371 3.169561
LeftShoulder -12.305721 42.050376 11.343492
LeftArm 59.903979 17.850373 -69.281780
LeftForeArm -4.615533 -0.000000 16.108646
LeftHand 5.877194 0.000000 -6.806849
LeftHandThumb1 -26.253704 0.000000 33.147579
RightShoulder -1.813107 -4.234638 -15.998838
RightArm 17.969162 -17.747728 88.001044
RightForeArm 0.497618 -0.000000 27.160769
RightHand 10.563197 -0.000000 -0.892660
RightHandThumb1 -24.326973 -0.000000 -32.862282
LeftUpLeg -19.161051 -6.495004 0.470988
LeftLeg 2.085114 -0.000000 -0.000000
LeftFoot -10.793147 12.505496 -11.701720
LeftToeBase -13.810228 -0.000000 0.000000
RightUpLeg -51.445729 6.416635 1.238981
RightLeg 46.502200 -0.000000 -0.000000
RightFoot -8.647180 -12.859720 16.744418
RightToeBase -11.054425 -0.000000 0.000000
633
root 39.265984 31.767481 -19.591238 30.262545 -61.814745 -4.359446
Spine -11.374276 -6.543225 2.864200
Head 1.741099 -3.131201 3.090805
LeftShoulder -12.163471 41.899066 11.486452
LeftArm 59.978213 18.003376 -69.244414
LeftForeArm -4.561022 -0.000000 16.171772
LeftHand 5.807575 -0.000000 -6.856456
LeftHandThumb1 -26.253704 0.000000 33.147579
RightShoulder -1.735417 -4.238313 -16.185961
RightArm 17.871664 -17.863016 88.220155
RightForeArm 0.558874 0.000000 27.267670
RightHand 10.554384 -0.000000 -1.111919
RightHandThumb1 -24.326973 -0.000000 -32.862282
LeftUpLeg -18.908924 -6.191937 0.392990
LeftLeg 1.823310 -0.000000 -0.000000
LeftFoot -10.712141 12.087021 -11.795369
LeftToeBase -13.791569 -0.000000 0.000000
RightUpLeg -51.470564 6.416961 1.256729
RightLeg 46.801755 -0.000000 -0.000000
RightFoot -9.076654 -12.773280 16.535780
RightToeBase -10.674440 -0.000000 0.000000
634
root 39.206436 31.762110 -19.568914 30.220211 -61.766189 -4.280779
Spine -11.256948 -6.601923 2.850978
Head 1.636298 -3.135873 3.030405
LeftShoulder -12.040347 41.756963 11.628608
LeftArm 60.039463 18.142590 -69.217415
LeftForeArm -4.435086 -0.000000 16.279925
LeftHand 5.772661 0.000000 -7.067238
LeftHandThumb1 -26.253704 0.000000 33.147579
RightShoulder -1.682040 -4.210944 -16.322980
RightArm 17.741582 -18.009202 88.406706
RightForeArm 0.780751 -0.000000 27.375453
RightHand 10.630171 0.000000 -0.755788
RightHandThumb1 -24.326973 -0.000000 -32.862282
LeftUpLeg -18.684581 -5.975973 0.324066
LeftLeg 1.540851 -0.000000 -0.000000
LeftFoot -10.567343 11.726898 -11.862229
LeftToeBase -13.827844 -0.000000 0.000000
RightUpLeg -51.499632 6.380435 1.265353
RightLeg 47.047654 -0.000000 -0.000000
RightFoot -9.450688 -12.696101 16.267044
RightToeBase -10.626302 -0.000000 0.000000
635
root 39.139163 31.753478 -19.548350 30.099280 -61.689436 -4.131005
Spine -11.116888 -6.661665 2.801959
Head 1.454176 -3.189341 2.974743
LeftShoulder -11.912147 41.607512 11.782431
LeftArm 60.142343 18.283584 -69.159124
LeftForeArm -4.398804 -0.000000 16.375116
LeftHand 5.578738 0.000000 -6.981986
LeftHandThumb1 -26.253704 0.000000 33.147579
RightShoulder -1.697700 -4.185588 -16.499635
RightArm 17.620515 -18.152682 88.684276
RightForeArm 0.846578 -0.000000 27.394956
RightHand 10.722260 0.000000 -0.611002
RightHandThumb1 -24.326973 -0.000000 -32.862282
LeftUpLeg -18.418870 -5.804202 0.240061
LeftLeg 1.226870 -0.000000 -0.000000
LeftFoot -10.483858 11.408434 -11.948643
LeftToeBase -13.824806 -0.000000 0.000000
RightUpLeg -51.476729 6.343705 1.252657
RightLeg 47.267201 -0.000000 -0.000000
RightFoot -9.776418 -12.631164 16.016827
RightToeBase -10.320435 -0.000000 0.000000
636
root 39.070040 31.742620 -19.524646 30.042324 -61.611193 -4.079222
Spine -10.957649 -6.766828 2.811558
Head 1.286077 -3.171572 2.932127
LeftShoulder -11.814870 41.442303 11.929475
LeftArm 60.186975 18.443616 -69.141154
LeftForeArm -4.453823 -0.000000 16.493087
LeftHand 5.623019 0.000000 -7.257804
LeftHandThumb1 -26.253704 0.000000 33.147579
RightShoulder -1.627126 -4.135047 -16.646316
RightArm 17.463097 -18.284803 88.876471
RightForeArm 0.817617 -0.000000 27.507270
RightHand 10.662505 -0.000000 -0.506323
RightHandThumb1 -24.326973 -0.000000 -32.862282
LeftUpLeg -18.106927 -5.691667 0.204436
LeftLeg 0.871118 -0.000000 -0.000000
LeftFoot -10.442829 11.234709 -12.004235
LeftToeBase -13.765095 -0.000000 0.000000
RightUpLeg -51.394941 6.300748 1.301616
RightLeg 47.437036 -0.000000 -0.000000
RightFoot -10.019147 -12.601421 15.686516
RightToeBase -10.217364 -0.000000 0.000000
637
root 38.999724 31.735756 -19.502208 30.040340 -61.485163 -3.929578
Spine -10.964757 -6.912085 2.810715
Head 1.123941 -3.165667 2.907111
LeftShoulder -11.725570 41.354667 12.049194
LeftArm 60.300372 18.584727 -69.051817
LeftForeArm -4.470030 -0.000000 16.641901
LeftHand 5.711752 -0.000000 -7.417008
LeftHandThumb1 -26.253704 0.000000 33.147579
RightShoulder -1.584651 -4.151475 -16.782563
RightArm 17.377674 -18.458560 89.031107
RightForeArm 0.823336 -0.000000 27.546969
RightHand 10.710286 -0.000000 -0.532788
RightHandThumb1 -24.326973 -0.000000 -32.862282
LeftUpLeg -17.959955 -5.751060 0.211400
LeftLeg 0.545441 -0.000000 -0.000000
LeftFoot -10.333054 11.156608 -12.040083
LeftToeBase -13.750963 -0.000000 0.000000
RightUpLeg -51.415237 6.195224 1.325224
RightLeg 47.527600 -0.000000 -0.000000
RightFoot -10.135976 -12.598974 15.382223
RightToeBase -10.342092 -0.000000 0.000000
638
root 38.924207 31.724245 -19.474725 29.909876 -61.366703 -3.687870
Spine -10.923187 -7.099506 2.763751
Head 0.932123 -3.124166 2.881891
LeftShoulder -11.658105 41.239873 12.159106
LeftArm 60.383281 18.731128 -68.967349
LeftForeArm -4.581481 0.000000 16.809881
LeftHand 5.591650 0.000000 -7.221113
LeftHandThumb1 -26.253704 0.000000 33.147579
RightShoulder -1.536003 -4.104559 -16.897656
RightArm 17.223383 -18.629726 89.196343
RightForeArm 0.694338 -0.000000 27.602492
RightHand 10.710445 -0.000000 -0.256113
RightHandThumb1 -24.326973 -0.000000 -32.862282
LeftUpLeg -17.746966 -5.868105 0.177425
LeftLeg 0.222905 -0.000000 -0.000000
LeftFoot -10.248670 11.116359 -12.057163
LeftToeBase -13.717570 -0.000000 0.000000
RightUpLeg -51.360538 6.073757 1.311543
RightLeg 47.596131 -0.000000 -0.000000
RightFoot -10.131282 -12.636285 14.836749
RightToeBase -10.821275 -0.000000 0.000000
